<svg xmlns="http://www.w3.org/2000/svg" width="162" height="46" viewBox="0 0 162 46">
    <g fill="none" fill-rule="evenodd">
        <path fill="#00818A" d="M18.395 26.68a5.57 5.57 0 0 0 1.003-1.75c.245-.683.37-1.41.37-2.16 0-.75-.125-1.477-.37-2.161a5.59 5.59 0 0 0-1.002-1.755 4.527 4.527 0 0 0-1.48-1.16 3.823 3.823 0 0 0-1.794-.385 3.863 3.863 0 0 0-1.754.491c-.523.29-.991.693-1.39 1.199a5.668 5.668 0 0 0-.914 1.707 6.41 6.41 0 0 0-.286 2.806c.01.081.02.163.033.244l.52-.055-.014-.35c0-.563.088-1.108.262-1.622a4.38 4.38 0 0 1 .713-1.328 3.471 3.471 0 0 1 1.055-.904 2.818 2.818 0 0 1 1.292-.352c.454-.014.896.088 1.317.294.413.204.787.503 1.111.887.33.392.59.852.772 1.366.19.539.287 1.11.287 1.7 0 .589-.096 1.16-.287 1.695a4.313 4.313 0 0 1-.77 1.356 3.392 3.392 0 0 1-1.112.874c-.42.202-.862.3-1.317.28l-.277-.028-.104.514a4.473 4.473 0 0 0 .424.09 4.178 4.178 0 0 0 .438.043l.138.002c.57 0 1.127-.128 1.656-.38a4.509 4.509 0 0 0 1.48-1.157m-2.55 4.408a.947.947 0 0 0-.147-.202.83.83 0 0 0-.198-.153l-.476-.21.1.544.003.05-.077 9.61c0 .055-.01.109-.027.155a.322.322 0 0 1-.061.105.195.195 0 0 1-.07.05.141.141 0 0 1-.046.009l-.05-.004-.045.16-.016.002.02-.18-.518-.324.087.567a1.028 1.028 0 0 0 .083.273.998.998 0 0 0 .256.334.828.828 0 0 0 .334.167l.082.014a.663.663 0 0 0 .317-.041c.1-.039.19-.1.267-.183a.83.83 0 0 0 .168-.277.997.997 0 0 0 .059-.335l.079-9.629a1.045 1.045 0 0 0-.124-.502m-3.87.085a3.918 3.918 0 0 0-.511-.552 3.357 3.357 0 0 0-.57-.406c-.196-.11-.4-.198-.61-.26a2.69 2.69 0 0 0-.628-.108 2.605 2.605 0 0 0-1.23.238 2.8 2.8 0 0 0-.557.344 3.138 3.138 0 0 0-.739.831l-.072.12.43.299c.101-.124.213-.233.33-.326.115-.09.237-.164.362-.222a1.668 1.668 0 0 1 1.186-.076c.137.041.27.1.4.173.133.076.262.169.383.277.126.112.245.242.354.385.219.289.389.623.505.991.114.36.171.735.171 1.116 0 .38-.057.744-.17 1.083a2.648 2.648 0 0 1-.496.898 2.084 2.084 0 0 1-.345.322 1.74 1.74 0 0 1-.764.32c-.132.02-.267.023-.401.01a1.782 1.782 0 0 1-.402-.09 2.044 2.044 0 0 1-.393-.186 2.31 2.31 0 0 1-.372-.286 2.785 2.785 0 0 1-.34-.386l-.441.28a3.673 3.673 0 0 0 .145.254 4.458 4.458 0 0 0 .166.25c.147.203.31.39.485.555.171.162.356.304.547.422.19.118.39.214.594.285a2.75 2.75 0 0 0 .894.154 2.626 2.626 0 0 0 .978-.192c.203-.082.399-.191.58-.324.187-.135.362-.296.52-.48.315-.362.558-.795.723-1.288.159-.473.239-.979.239-1.505 0-.524-.08-1.041-.238-1.536a4.54 4.54 0 0 0-.713-1.384m17.973.927a.978.978 0 0 0-.25-.278l-7.62-5.785a.763.763 0 0 0-.22-.12.754.754 0 0 0-.238-.044.852.852 0 0 0-.273.044.818.818 0 0 0-.241.138l-.286.28.374.175 7.615 5.796c.046.035.086.08.117.132a.531.531 0 0 1 .072.353.464.464 0 0 1-.073.189l-.024.028-.417.322.48.204a1.007 1.007 0 0 0 .14.039.734.734 0 0 0 .135.012.81.81 0 0 0 .389-.098.875.875 0 0 0 .338-.33.97.97 0 0 0 .124-.354 1.047 1.047 0 0 0-.142-.703m-5.73.529a4.582 4.582 0 0 0-.626-.84 4.13 4.13 0 0 0-.75-.628 3.695 3.695 0 0 0-.836-.404 3.276 3.276 0 0 0-1.436-.149 3.146 3.146 0 0 0-1.796.853 3.814 3.814 0 0 0-.21.215l.355.384a2.212 2.212 0 0 1 .684-.358 2.114 2.114 0 0 1 1.328.028c.198.067.391.161.574.28.188.123.364.271.525.443.166.178.317.38.445.602.21.362.354.758.43 1.177.074.407.08.815.018 1.215a3.177 3.177 0 0 1-.37 1.088c-.187.332-.429.605-.718.813-.11.079-.226.148-.347.205a2.08 2.08 0 0 1-1.104.192 2.286 2.286 0 0 1-.589-.14 2.547 2.547 0 0 1-.56-.298 2.913 2.913 0 0 1-.503-.45 3.328 3.328 0 0 1-.421-.594l-.473.223.06.15a4.787 4.787 0 0 0 .218.45c.168.302.365.582.586.83.216.244.457.46.715.642.256.18.529.326.81.435a3.42 3.42 0 0 0 1.203.229 3.112 3.112 0 0 0 1.324-.294c.18-.083.354-.185.518-.302a3.633 3.633 0 0 0 1.048-1.172c.262-.458.44-.971.525-1.525a4.999 4.999 0 0 0-.025-1.676 4.975 4.975 0 0 0-.601-1.624m6.58-11.605a4.503 4.503 0 0 0-.879-1.433 3.96 3.96 0 0 0-1.296-.951 3.582 3.582 0 0 0-3.115.069 3.995 3.995 0 0 0-1.232.975c-.35.409-.624.88-.815 1.402a4.905 4.905 0 0 0-.244 2.374l.521-.036a3.58 3.58 0 0 1 .218-1.228c.138-.374.335-.712.587-1.003.25-.29.541-.519.865-.68a2.453 2.453 0 0 1 2.141-.03c.337.157.641.384.904.677.267.296.477.642.624 1.03.154.404.232.833.232 1.276 0 .442-.077.87-.23 1.272a3.208 3.208 0 0 1-.622 1.022 2.753 2.753 0 0 1-.9.665 2.402 2.402 0 0 1-1.076.22l-.058.52a5.309 5.309 0 0 0 .306.051 4.015 4.015 0 0 0 .322.026h.1c.507 0 1.002-.106 1.472-.317.484-.218.92-.536 1.296-.947.376-.41.672-.892.878-1.43.215-.557.323-1.15.323-1.761 0-.612-.108-1.205-.323-1.763M9.371 27.333a.974.974 0 0 0 .19-.689l-.074-.547-.397.415-6.167 3.994.143.22-.187-.204.03.26-.07-.269a.162.162 0 0 1-.043-.026.258.258 0 0 1-.048-.054.395.395 0 0 1-.044-.083l-.088-.766-.403.474-.068.09a.755.755 0 0 0-.123.298 1.025 1.025 0 0 0 .049.59c.026.069.061.134.1.192.042.06.089.112.141.156a.712.712 0 0 0 .178.11.621.621 0 0 0 .394.03.6.6 0 0 0 .178-.08l6.126-3.942a.758.758 0 0 0 .183-.169M2.61 13.915c.05.096.117.176.198.24l5.837 4.593a.717.717 0 0 0 .206.112.695.695 0 0 0 .212.035h.013a.677.677 0 0 0 .359-.116.763.763 0 0 0 .1-.08l.304-.281-.385-.154-.119.22-.002-.002.078-.243-5.874-4.603a.233.233 0 0 1-.06-.074.417.417 0 0 1-.04-.124.54.54 0 0 1 .04-.3l.358-.392-.391-.136a.961.961 0 0 0-.105-.03.461.461 0 0 0-.124-.01h-.057l-.014.007a.696.696 0 0 0-.308.136.909.909 0 0 0-.241.31 1.042 1.042 0 0 0-.08.606.93.93 0 0 0 .095.286m18.605 3.565a1.036 1.036 0 0 0-.217.741l.091.533.398-.412-.134-.154h.011l.153.13 7.903-5.172a.376.376 0 0 1 .17-.06.306.306 0 0 1 .252.104.434.434 0 0 1 .09.169.326.326 0 0 1 .009.04l.054.618.4-.41a.834.834 0 0 0 .179-.247 1.064 1.064 0 0 0 .09-.695.951.951 0 0 0-.228-.448.856.856 0 0 0-.425-.25.804.804 0 0 0-.247-.02.742.742 0 0 0-.22.043.894.894 0 0 0-.207.1l-7.92 5.207a.903.903 0 0 0-.202.183m-6.826-3.44c.042.073.094.139.152.193.062.06.132.106.207.14l.449.146-.093-.49-.003-.051.079-9.593a.533.533 0 0 1 .104-.317.394.394 0 0 1 .1-.095c.033-.02.065-.033.069-.035h.058l.486.178-.09-.461a1.018 1.018 0 0 0-.09-.264.821.821 0 0 0-.122-.168.722.722 0 0 0-.365-.208.57.57 0 0 0-.194-.011h-.162l-.018.036a.796.796 0 0 0-.168.082.923.923 0 0 0-.238.222 1.062 1.062 0 0 0-.209.628l-.078 9.572a1.007 1.007 0 0 0 .126.496m4.05-4.81a3.27 3.27 0 0 1 .57-.762c.217-.216.46-.39.718-.52a2.309 2.309 0 0 1 .969-.245 2.063 2.063 0 0 1 .49.048c.333.073.64.223.912.446.267.218.49.498.664.83.175.338.29.711.338 1.11a3.666 3.666 0 0 1-.446 2.244 3.25 3.25 0 0 1-.6.766 2.75 2.75 0 0 1-.742.504 2.281 2.281 0 0 1-.976.206 1.84 1.84 0 0 1-.32-.032 2.215 2.215 0 0 1-.162-.035l-.18.49a3.189 3.189 0 0 0 .553.207 3.103 3.103 0 0 0 .969.1c.41-.022.816-.122 1.206-.297a3.92 3.92 0 0 0 1.069-.718c.328-.305.611-.666.842-1.07.239-.42.417-.878.528-1.362a5.014 5.014 0 0 0 .093-1.736 4.49 4.49 0 0 0-.477-1.55 3.743 3.743 0 0 0-.964-1.189 3.19 3.19 0 0 0-2.338-.698 3.437 3.437 0 0 0-1.19.354 4.02 4.02 0 0 0-1.024.746c-.31.31-.576.667-.791 1.065a5.01 5.01 0 0 0-.584 1.976l.517.079a3.62 3.62 0 0 1 .357-.957m-10.833.515a2.75 2.75 0 0 1 .468-.548c.17-.151.354-.273.546-.363a1.805 1.805 0 0 1 .808-.168 1.643 1.643 0 0 1 .666.172c.266.131.502.329.7.587.196.256.348.56.45.903.104.348.151.716.14 1.096a3.647 3.647 0 0 1-.218 1.146 3.3 3.3 0 0 1-.37.73c-.143.21-.308.394-.488.546a2.183 2.183 0 0 1-.56.346 1.774 1.774 0 0 1-.811.136 1.589 1.589 0 0 1-.438-.098 1.725 1.725 0 0 1-.215-.097l-.288.435a3.784 3.784 0 0 0 .322.23 2.657 2.657 0 0 0 1.144.377 2.493 2.493 0 0 0 .35.006c.309-.016.616-.087.913-.21a3.25 3.25 0 0 0 .836-.512c.263-.219.5-.482.706-.781.211-.308.387-.651.522-1.02a5 5 0 0 0 .303-1.58 4.774 4.774 0 0 0-.196-1.52 3.922 3.922 0 0 0-.651-1.286 3.001 3.001 0 0 0-1.064-.876 2.73 2.73 0 0 0-.697-.224 2.65 2.65 0 0 0-.704-.023 2.81 2.81 0 0 0-.901.254 3.312 3.312 0 0 0-.808.539c-.25.224-.475.489-.669.785a4.644 4.644 0 0 0-.58 1.297l-.071.293.503.144c.092-.259.21-.5.352-.716M2.478 21.247L2 21.035a4.918 4.918 0 0 1 .225-.522c.138-.262.3-.502.48-.713.178-.207.375-.386.588-.534.21-.146.437-.26.67-.34.236-.08.478-.123.721-.13a2.424 2.424 0 0 1 .92.16c.152.057.3.13.442.218.145.089.286.194.417.31.34.302.621.68.838 1.126.209.427.35.897.418 1.398a5 5 0 0 1-.02 1.495c-.085.512-.247.99-.482 1.42a3.71 3.71 0 0 1-.509.717c-.186.205-.393.38-.614.52-.22.14-.452.245-.69.313a2.426 2.426 0 0 1-1.188.035 2.512 2.512 0 0 1-.877-.38 3.052 3.052 0 0 1-.757-.726l.39-.35c.085.081.173.153.264.213a1.581 1.581 0 0 0 .556.241 1.447 1.447 0 0 0 .736-.026c.152-.043.3-.11.44-.201a2 2 0 0 0 .406-.348c.13-.144.248-.311.349-.497.166-.305.28-.647.341-1.014.059-.357.064-.722.015-1.083a3.324 3.324 0 0 0-.297-1.003 2.485 2.485 0 0 0-.573-.778 1.96 1.96 0 0 0-.274-.207 1.561 1.561 0 0 0-.854-.244c-.15.002-.301.029-.449.078-.148.05-.293.122-.429.216-.14.096-.272.216-.392.354-.124.145-.236.31-.333.494"/>
        <path fill="#2D343A" d="M158.572 34.094c0 .898-.71 1.575-1.653 1.575-.44 0-.766-.156-1.005-.27a3.084 3.084 0 0 0-.16-.072.478.478 0 0 0-.103.206l-.03.136h-.47v-2.061h.502l.003.173c0 .05.035 1.227 1.263 1.227.463 0 .798-.286.798-.68 0-.249-.262-.506-.8-.787l-.745-.38c-.464-.24-.96-.743-.96-1.439 0-.76.63-1.333 1.466-1.333.437 0 .712.125.927.264a.47.47 0 0 0 .078-.169l.031-.134h.47v2.06h-.5l-.013-.159c-.07-.809-.403-1.202-1.016-1.202-.33 0-.58.223-.58.518 0 .29.174.457.848.809l.745.38c.583.295.904.77.904 1.338zM146.96 30.52h2.123v.512h-.175c-.507 0-.572 0-.572.728v3.908h-.437l-2.907-3.593v2.213c0 .734.065.734.572.734h.175v.513h-2.123v-.513h.175c.5 0 .564 0 .564-.734V31.76c0-.728-.053-.728-.564-.728h-.175v-.512h1.355l2.728 3.381v-2.141c0-.728-.054-.728-.564-.728h-.175v-.512zm-12.347 4.487c-1.323 0-1.676-1.244-1.676-1.98 0-.738.353-1.986 1.676-1.986 1.33 0 1.684 1.248 1.684 1.986 0 .736-.355 1.98-1.684 1.98zm0-4.62c-1.524 0-2.764 1.185-2.764 2.64 0 1.456 1.24 2.64 2.764 2.64 1.529 0 2.772-1.184 2.772-2.64 0-1.455-1.243-2.64-2.772-2.64zm-11.802.133h2.45v.512h-.175c-.511 0-.564 0-.564.728v2.528c0 .734.064.734.564.734h.174v.513h-2.45v-.513h.176c.5 0 .564 0 .564-.734V31.76c0-.728-.054-.728-.564-.728h-.175v-.512zm-6.529 0l.093 1.399h-.486l-.073-.288c-.092-.352-.12-.458-.732-.458h-.844v3.115c0 .734.065.734.572.734h.175v.513h-2.457v-.513h.174c.507 0 .572 0 .572-.734v-3.115h-.844c-.611 0-.64.106-.733.46l-.071.286h-.487l.093-1.4h5.048zm-12.33.085h.474v2.06h-.472l-.03-.137c-.203-.945-.753-1.487-1.508-1.487-1.201 0-1.521 1.248-1.521 1.986 0 .736.32 1.98 1.52 1.98.754 0 1.304-.54 1.51-1.48l.03-.138h.47v2.06h-.472l-.03-.139a.689.689 0 0 0-.098-.229c-.42.38-.925.587-1.44.587-1.414 0-2.563-1.185-2.563-2.64 0-1.456 1.15-2.64 2.562-2.64.522 0 1.027.206 1.44.584a.631.631 0 0 0 .1-.226l.028-.14zm-12.866-.085h2.17v.512h-.175c-.507 0-.572 0-.572.728v1.867c0 1.22-.824 2.04-2.05 2.04-1.22 0-2.04-.82-2.04-2.04V31.76c0-.728-.054-.728-.564-.728h-.175v-.512h2.45v.512h-.176c-.51 0-.563 0-.563.728v1.905c0 .828.432 1.303 1.185 1.303.8 0 1.257-.475 1.257-1.303v-1.905c0-.728-.065-.728-.572-.728h-.175v-.512zm-13.015 4.378c-.496 0-.548 0-.548-.727v-3.014h.579c1.379 0 1.668 1.017 1.668 1.87 0 .854-.29 1.871-1.7 1.871zm.023-4.378h-2.282v.512h.175c.51 0 .564 0 .564.728v2.528c0 .734-.064.734-.564.734h-.175v.513h2.282c2.044 0 2.773-1.295 2.773-2.508 0-1.212-.729-2.507-2.773-2.507zm-11.985 4.487c-1.323 0-1.676-1.244-1.676-1.98 0-.738.353-1.986 1.676-1.986 1.33 0 1.685 1.248 1.685 1.986 0 .736-.355 1.98-1.685 1.98zm0-4.62c-1.524 0-2.764 1.185-2.764 2.64 0 1.456 1.24 2.64 2.764 2.64 1.529 0 2.773-1.184 2.773-2.64 0-1.455-1.244-2.64-2.773-2.64zm-12.062 2.474h-.51v-1.704h.51c.755 0 .813.652.813.852 0 .256-.08.852-.813.852zm1.192 1.236l-.564-.662c.755-.184 1.227-.72 1.227-1.426 0-.741-.571-1.49-1.847-1.49h-2.227v.513h.174c.511 0 .564 0 .564.728v2.528c0 .734-.064.734-.564.734h-.174v.513h2.449v-.513h-.175c-.5 0-.564 0-.564-.734v-.798h.103l1.54 2.045h1.545v-.493l-.154-.019c-.39-.045-.875-.383-1.333-.926zm-11.83-1.236h-.51v-1.704h.51c.753 0 .812.652.812.852 0 .256-.079.852-.813.852zm.007-2.341h-2.228v.512h.175c.51 0 .564 0 .564.728v2.528c0 .734-.064.734-.564.734h-.175v.513h2.45v-.513h-.175c-.5 0-.564 0-.564-.734v-.798h.517c1.276 0 1.847-.744 1.847-1.481 0-.741-.571-1.49-1.847-1.49zM113.247 22.33v.87h.175c1.321 0 1.554.36 1.554 1.116 0 1.376-1.49 1.582-2.378 1.582-2.741 0-2.954-2.976-2.954-3.888 0-.912.213-3.887 2.954-3.887 1.537 0 2.666 1.14 3.095 3.128l.03.138h.865v-4.11h-.822l-.1.303c-.057.177-.115.357-.177.506-.735-.705-1.863-1.166-2.89-1.166-2.973 0-5.39 2.283-5.39 5.088 0 2.82 2.417 5.116 5.39 5.116.595 0 1.378-.211 2.135-.415.747-.2 1.52-.409 2.091-.409H117v-.998c0-1.948.243-2.104 1.61-2.104h.174v-.87h-5.537zm-11.266-4.18h.174c1.366 0 1.61.156 1.61 2.104v3.286l-5.788-6.26H95.01v.87h.174c1.367 0 1.61.156 1.61 2.104v3.513c0 1.872-.196 2.131-1.61 2.131h-.174v.87h4.769v-.87h-.175c-1.414 0-1.61-.259-1.61-2.131v-3.34l6.144 6.671h.828v-6.844c0-1.948.243-2.104 1.61-2.104h.174v-.87h-4.768v.87zm-14.85 0h.175c1.366 0 1.61.156 1.61 2.104v3.513c0 1.872-.197 2.131-1.61 2.131h-.175v.87h5.812v-.87h-.175c-1.414 0-1.609-.259-1.609-2.131v-3.513c0-1.948.243-2.104 1.609-2.104h.175v-.87H87.13v.87zm-6.408 0h.174c.745 0 1.16.085 1.272.258.11.172-.02.536-.25 1.03l-2.037 4.33-2.038-4.33c-.243-.51-.306-.828-.2-.995.125-.197.533-.293 1.25-.293h.175v-.87H73.42v.87h.175c1.134 0 1.365.285 2.037 1.738l3.368 7.238h.717l3.396-7.238.001-.001c.68-1.496.881-1.737 2.146-1.737h.175v-.87h-4.713v.87zm-9.904 3.86c0-1.793-.853-3.887-3.257-3.887-2.548 0-3.228 2.443-3.228 3.887 0 1.794.845 3.888 3.228 3.888 2.404 0 3.257-2.094 3.257-3.888zm2.408 0c0 2.82-2.541 5.116-5.665 5.116-3.123 0-5.664-2.295-5.664-5.116 0-2.805 2.541-5.088 5.664-5.088 3.124 0 5.665 2.283 5.665 5.088zM57.275 9.95h4.599v.926h-.175c-2.184 0-2.46.338-2.46 3.01v8.92c0 2.696.276 3.037 2.46 3.037h.175v.926h-7.76v-.926h.174c2.16 0 2.433-.341 2.433-3.037v-8.103l-5.42 12.532h-.586l-5.803-13.36v8.931c0 2.668.298 3.037 2.46 3.037h.174v.926H40.94v-.926h.175c2.16 0 2.432-.341 2.432-3.037v-8.92c0-2.672-.273-3.01-2.432-3.01h-.175V9.95h4.955l5.704 13.104L57.275 9.95z"/>
        <path fill="#00818A" d="M159.724 17.28v.87h-.175c-1.366 0-1.61.156-1.61 2.104v6.844h-.827l-6.144-6.671v3.34c0 1.872.196 2.13 1.61 2.13h.175v.872h-4.77v-.871h.176c1.413 0 1.609-.259 1.609-2.131v-3.513c0-1.948-.243-2.104-1.61-2.104h-.174v-.87h2.968l5.788 6.26v-3.286c0-1.948-.243-2.104-1.61-2.104h-.175v-.87h4.769zm-23.863 8.508c-2.361 0-6.358-1.564-6.358-7.428 0-3.591 1.99-7.456 6.358-7.456 2.372 0 6.385 1.57 6.385 7.456 0 5.864-4.013 7.428-6.385 7.428zm0-16.304c-5.136 0-9.315 3.982-9.315 8.876 0 4.894 4.179 8.875 9.315 8.875 5.152 0 9.343-3.981 9.343-8.875s-4.191-8.876-9.343-8.876z"/>
    </g>
</svg>
