<svg xmlns="http://www.w3.org/2000/svg" width="162" height="46" viewBox="0 0 162 46">
    <g fill="none" fill-rule="evenodd">
        <path fill="#74B3CE" d="M18.395 26.68a5.564 5.564 0 0 0 1.003-1.75c.245-.683.37-1.41.37-2.16 0-.75-.125-1.477-.37-2.161a5.597 5.597 0 0 0-1.002-1.755 4.53 4.53 0 0 0-1.48-1.16 3.825 3.825 0 0 0-1.794-.385 3.86 3.86 0 0 0-1.754.491A4.62 4.62 0 0 0 11.978 19a5.675 5.675 0 0 0-.914 1.707 6.42 6.42 0 0 0-.287 2.806c.01.081.021.163.033.244l.521-.055-.014-.35c0-.563.088-1.108.262-1.622.167-.496.407-.942.713-1.328.304-.384.659-.688 1.055-.904a2.818 2.818 0 0 1 1.292-.352c.454-.014.897.088 1.316.294.414.204.788.503 1.112.887.33.392.59.852.772 1.366.19.539.288 1.11.288 1.7 0 .589-.097 1.16-.288 1.695a4.313 4.313 0 0 1-.77 1.356 3.391 3.391 0 0 1-1.111.874c-.42.202-.862.3-1.319.28l-.276-.028-.104.514a4.694 4.694 0 0 0 .424.09 4.13 4.13 0 0 0 .438.043l.138.002c.57 0 1.127-.128 1.656-.38a4.508 4.508 0 0 0 1.48-1.157zm-2.55 4.409a.935.935 0 0 0-.147-.202.829.829 0 0 0-.198-.153l-.476-.21.1.544.003.05-.077 9.61c0 .055-.01.109-.027.155a.335.335 0 0 1-.061.105.196.196 0 0 1-.07.05.14.14 0 0 1-.046.009l-.05-.004-.045.16-.016.002.02-.18-.518-.324.087.567a1.037 1.037 0 0 0 .083.273 1 1 0 0 0 .255.334.83.83 0 0 0 .335.167l.082.014a.652.652 0 0 0 .317-.041c.1-.039.19-.1.267-.183a.824.824 0 0 0 .167-.277.988.988 0 0 0 .06-.335l.079-9.629a1.061 1.061 0 0 0-.125-.502zm-3.87.085a3.895 3.895 0 0 0-.511-.552 3.36 3.36 0 0 0-.57-.406 2.97 2.97 0 0 0-.609-.26 2.696 2.696 0 0 0-.629-.108 2.6 2.6 0 0 0-1.23.238 2.793 2.793 0 0 0-.558.344 3.136 3.136 0 0 0-.737.831l-.073.12.43.299c.101-.124.212-.233.33-.326.115-.09.237-.164.363-.222a1.67 1.67 0 0 1 1.185-.076c.137.041.27.1.4.173.133.076.262.169.383.277.126.112.245.242.354.385.219.289.389.623.505.991.114.36.171.735.171 1.116 0 .38-.057.744-.17 1.083a2.648 2.648 0 0 1-.496.898 2.082 2.082 0 0 1-.345.322 1.748 1.748 0 0 1-.373.212 1.642 1.642 0 0 1-.792.118 1.785 1.785 0 0 1-.402-.09 2.042 2.042 0 0 1-.392-.186 2.31 2.31 0 0 1-.372-.286 2.762 2.762 0 0 1-.34-.386l-.442.28a3.467 3.467 0 0 0 .225.379l.085.125c.148.203.311.39.486.555.171.162.356.304.547.422.19.118.39.214.594.285a2.75 2.75 0 0 0 .894.154 2.632 2.632 0 0 0 .979-.192c.202-.082.397-.191.58-.324a3.09 3.09 0 0 0 .52-.48c.314-.362.557-.795.722-1.288.158-.473.239-.979.239-1.505 0-.524-.08-1.041-.238-1.536a4.531 4.531 0 0 0-.713-1.384zm17.973.927a.98.98 0 0 0-.25-.278l-7.62-5.785a.784.784 0 0 0-.458-.164.854.854 0 0 0-.273.044.836.836 0 0 0-.24.138l-.287.28.374.175 7.615 5.796c.046.035.086.08.117.132a.532.532 0 0 1 .072.353.459.459 0 0 1-.073.189l-.024.028-.417.322.48.204a1.093 1.093 0 0 0 .14.039.734.734 0 0 0 .134.012.813.813 0 0 0 .39-.098.877.877 0 0 0 .338-.33.977.977 0 0 0 .123-.354 1.047 1.047 0 0 0-.14-.703zm-5.73.529a4.596 4.596 0 0 0-.625-.84 4.132 4.132 0 0 0-.752-.628 3.68 3.68 0 0 0-.835-.404 3.272 3.272 0 0 0-1.435-.149 3.132 3.132 0 0 0-1.072.336 3.342 3.342 0 0 0-.725.517 3.405 3.405 0 0 0-.21.215l.355.384a2.23 2.23 0 0 1 .684-.358 2.1 2.1 0 0 1 .734-.088c.2.011.399.05.593.116.199.067.392.161.575.28.187.123.364.271.524.443.167.178.317.38.445.602.21.362.355.758.431 1.177.073.407.08.815.018 1.215-.061.397-.185.763-.37 1.088-.187.332-.429.605-.718.813-.109.079-.226.148-.346.205a2.08 2.08 0 0 1-1.106.192 2.286 2.286 0 0 1-.588-.14 2.545 2.545 0 0 1-.559-.298 2.9 2.9 0 0 1-.504-.45 3.33 3.33 0 0 1-.422-.594l-.472.223.06.15a4.098 4.098 0 0 0 .217.45c.169.302.366.582.587.83.216.244.457.46.715.642.256.18.528.326.81.435a3.417 3.417 0 0 0 1.204.229 3.117 3.117 0 0 0 1.841-.595 3.634 3.634 0 0 0 1.048-1.173c.263-.458.44-.971.525-1.525a5.008 5.008 0 0 0-.025-1.676 4.976 4.976 0 0 0-.601-1.624zm6.58-11.605a4.502 4.502 0 0 0-.878-1.433 3.964 3.964 0 0 0-1.295-.951 3.58 3.58 0 0 0-3.115.069 3.991 3.991 0 0 0-1.233.975c-.35.409-.624.88-.815 1.402a4.914 4.914 0 0 0-.265 2.207l.02.167.522-.036a3.58 3.58 0 0 1 .218-1.228 3.24 3.24 0 0 1 .587-1.003c.25-.29.541-.519.865-.68a2.453 2.453 0 0 1 2.141-.03 2.8 2.8 0 0 1 .904.677c.267.296.477.642.624 1.03.154.404.232.833.232 1.276 0 .442-.078.87-.231 1.272a3.208 3.208 0 0 1-.621 1.022 2.753 2.753 0 0 1-.9.665 2.4 2.4 0 0 1-1.076.22l-.058.52a5.288 5.288 0 0 0 .307.051 3.88 3.88 0 0 0 .321.026h.1a3.56 3.56 0 0 0 1.471-.317c.485-.218.921-.536 1.297-.947.376-.41.671-.892.878-1.43.215-.557.323-1.15.323-1.761a4.89 4.89 0 0 0-.323-1.763zm-21.61 6.477l-6.126 3.943a.603.603 0 0 1-.368.098.623.623 0 0 1-.204-.048.71.71 0 0 1-.177-.11.795.795 0 0 1-.14-.157A.999.999 0 0 1 2 30.64a.998.998 0 0 1 .112-.443.63.63 0 0 1 .031-.05l.069-.09.403-.474.088.766c.012.03.026.058.044.083a.27.27 0 0 0 .048.054.16.16 0 0 0 .042.026l.07.27-.03-.26.188.203-.142-.22 6.165-3.994.398-.415.075.547a.974.974 0 0 1-.19.689.764.764 0 0 1-.184.169zM2.609 13.915a.762.762 0 0 0 .198.24l5.837 4.593a.696.696 0 0 0 .321.14.674.674 0 0 0 .097.007h.013a.669.669 0 0 0 .358-.116.72.72 0 0 0 .1-.08l.305-.281-.385-.154-.118.22-.003-.002.078-.243-5.874-4.603a.233.233 0 0 1-.06-.074.438.438 0 0 1-.04-.124.527.527 0 0 1 .04-.3l.358-.392-.391-.136a.961.961 0 0 0-.105-.03.457.457 0 0 0-.124-.01h-.057l-.014.007a.698.698 0 0 0-.444.274.91.91 0 0 0-.105.173 1.067 1.067 0 0 0-.08.606c.017.103.05.199.095.285zm18.605 3.565a.983.983 0 0 0-.208.477 1.064 1.064 0 0 0-.008.264l.09.533.398-.412-.134-.154h.011l.153.13 7.903-5.172a.4.4 0 0 1 .128-.054.299.299 0 0 1 .217.036.374.374 0 0 1 .176.272l.054.617.4-.41a1.01 1.01 0 0 0 .26-.47 1.054 1.054 0 0 0 .01-.472.981.981 0 0 0-.23-.448.849.849 0 0 0-.671-.27.737.737 0 0 0-.22.043.899.899 0 0 0-.206.1l-7.921 5.207a.905.905 0 0 0-.202.183zm-6.826-3.44c.042.073.094.139.152.193.062.06.132.106.207.14l.449.146-.093-.49-.003-.051.078-9.593a.543.543 0 0 1 .105-.317.394.394 0 0 1 .1-.095c.033-.02.065-.033.068-.035H15.511l.484.178-.09-.461a.939.939 0 0 0-.033-.128c-.006-.023-.014-.044-.022-.066a.808.808 0 0 0-.32-.369.678.678 0 0 0-.395-.088h-.162l-.018.036a.802.802 0 0 0-.167.082.919.919 0 0 0-.239.222 1.071 1.071 0 0 0-.21.628l-.077 9.572c0 .09.01.178.031.261a.934.934 0 0 0 .095.235zm4.05-4.81a3.27 3.27 0 0 1 .57-.762c.217-.216.46-.39.719-.52a2.305 2.305 0 0 1 .968-.245 2.095 2.095 0 0 1 .491.048c.332.073.639.223.91.446.268.218.492.498.665.83.176.338.29.711.338 1.11.051.415.029.838-.066 1.257-.08.351-.21.683-.38.986a3.24 3.24 0 0 1-.6.767 2.752 2.752 0 0 1-.742.504 2.28 2.28 0 0 1-.976.206 1.849 1.849 0 0 1-.32-.032 2.206 2.206 0 0 1-.162-.035l-.18.49a3.401 3.401 0 0 0 .408.165 3.124 3.124 0 0 0 .872.145h.076a3.293 3.293 0 0 0 1.372-.3 3.926 3.926 0 0 0 1.069-.718c.327-.305.611-.666.842-1.07.24-.42.417-.878.528-1.362a5.023 5.023 0 0 0 .094-1.736 4.497 4.497 0 0 0-.478-1.55 3.747 3.747 0 0 0-.964-1.189 3.193 3.193 0 0 0-2.338-.698 3.437 3.437 0 0 0-1.19.354c-.37.187-.715.438-1.024.746-.31.31-.576.667-.791 1.065a5.022 5.022 0 0 0-.548 1.65 5.406 5.406 0 0 0-.036.326l.517.079a3.63 3.63 0 0 1 .356-.957zm-10.832.515c.136-.208.294-.393.468-.548.17-.151.354-.273.546-.363a1.804 1.804 0 0 1 .808-.168 1.642 1.642 0 0 1 .666.172c.266.131.501.329.7.587.196.256.348.56.45.903a3.647 3.647 0 0 1-.078 2.242c-.096.265-.22.51-.37.73-.143.21-.308.394-.489.546a2.176 2.176 0 0 1-.559.346 1.776 1.776 0 0 1-.81.136 1.594 1.594 0 0 1-.439-.098 1.725 1.725 0 0 1-.215-.097l-.288.435a4.442 4.442 0 0 0 .209.157 3.306 3.306 0 0 0 .231.141 2.652 2.652 0 0 0 1.026.31 2.5 2.5 0 0 0 .35.005 2.75 2.75 0 0 0 .913-.21c.294-.122.576-.295.837-.512.262-.219.499-.482.705-.781.211-.308.387-.651.522-1.02a5 5 0 0 0 .303-1.58 4.784 4.784 0 0 0-.196-1.52 3.914 3.914 0 0 0-.651-1.286 3 3 0 0 0-1.064-.876 2.726 2.726 0 0 0-.697-.224 2.639 2.639 0 0 0-.704-.023c-.306.031-.61.117-.902.254a3.312 3.312 0 0 0-.807.539 3.95 3.95 0 0 0-.668.785 4.611 4.611 0 0 0-.581 1.297l-.071.293.503.144c.092-.259.21-.5.352-.716zM2.479 21.247L2 21.035a5.384 5.384 0 0 1 .162-.393 3.819 3.819 0 0 1 .543-.842c.178-.207.376-.386.588-.534.21-.146.436-.26.67-.34a2.444 2.444 0 0 1 1.184-.095 2.583 2.583 0 0 1 .9.343c.144.089.285.194.417.31.338.302.62.68.837 1.126.208.427.35.897.418 1.398.068.5.062 1.002-.02 1.495-.085.512-.248.99-.482 1.42a3.696 3.696 0 0 1-.51.717 3.06 3.06 0 0 1-.613.52c-.22.14-.452.245-.69.313a2.424 2.424 0 0 1-1.636-.11 2.698 2.698 0 0 1-.428-.236 3.055 3.055 0 0 1-.497-.418 4.01 4.01 0 0 1-.26-.307l.389-.35a2 2 0 0 0 .264.213 1.703 1.703 0 0 0 .556.242 1.445 1.445 0 0 0 .736-.026c.152-.044.3-.111.44-.202.145-.093.282-.21.406-.348.13-.144.248-.311.349-.497a3.2 3.2 0 0 0 .341-1.014c.06-.357.064-.722.015-1.083a3.325 3.325 0 0 0-.297-1.003 2.484 2.484 0 0 0-.573-.778 1.981 1.981 0 0 0-.274-.207 1.565 1.565 0 0 0-.854-.244c-.15.002-.301.029-.448.078-.149.05-.293.122-.43.216-.14.096-.272.216-.392.354-.124.145-.237.31-.332.494z"/>
        <path fill="#BCB38E" d="M42.899 31.158h.51c.754 0 .812.652.812.852 0 .256-.079.852-.813.852h-.51v-1.704zm.517-.637c1.276 0 1.847.748 1.847 1.489 0 .737-.571 1.481-1.847 1.481h-.517v.797c0 .736.064.736.564.736h.175v.512h-2.45v-.512h.175c.5 0 .564 0 .564-.736v-2.527c0-.727-.054-.727-.564-.727h-.175v-.513h2.228zm11.822 3.577c.459.543.945.881 1.334.927l.154.017v.494h-1.545l-1.54-2.045h-.103v.797c0 .736.064.736.564.736h.175v.512h-2.45v-.512h.175c.5 0 .564 0 .564-.736v-2.527c0-.727-.053-.727-.564-.727h-.175v-.513h2.228c1.276 0 1.847.748 1.847 1.489 0 .706-.472 1.242-1.227 1.426l.563.662zm-1.7-2.94v1.704h.51c.733 0 .812-.596.812-.852 0-.2-.058-.852-.813-.852h-.51zm12.572-.77c1.528 0 2.772 1.185 2.772 2.64 0 1.457-1.244 2.64-2.772 2.64-1.525 0-2.765-1.183-2.765-2.64 0-1.455 1.24-2.64 2.765-2.64zm0 .654c-1.323 0-1.676 1.248-1.676 1.987 0 .735.353 1.98 1.676 1.98 1.329 0 1.683-1.245 1.683-1.98 0-.739-.354-1.987-1.683-1.987zm11.984-.521c2.044 0 2.772 1.295 2.772 2.507 0 1.213-.728 2.508-2.772 2.508h-2.282v-.512h.175c.5 0 .564 0 .564-.736v-2.527c0-.728-.054-.728-.564-.728h-.175v-.512h2.282zm-.571 3.65c0 .728.051.728.548.728 1.41 0 1.7-1.017 1.7-1.87 0-.854-.29-1.87-1.67-1.87h-.578v3.013zm13.563-3.138v-.512h2.17v.512h-.175c-.507 0-.572 0-.572.728v1.867c0 1.22-.824 2.04-2.05 2.04-1.22 0-2.04-.82-2.04-2.04V31.76c0-.728-.054-.728-.564-.728h-.175v-.512h2.45v.512h-.175c-.51 0-.565 0-.565.728v1.905c0 .828.433 1.303 1.187 1.303.798 0 1.256-.475 1.256-1.303v-1.905c0-.728-.065-.728-.572-.728h-.175zm12.838-.286l.028-.14h.474v2.06h-.472l-.03-.138c-.203-.945-.753-1.487-1.509-1.487-1.2 0-1.52 1.248-1.52 1.986 0 .736.32 1.98 1.52 1.98.754 0 1.303-.54 1.51-1.48l.03-.138h.47v2.06h-.472l-.029-.138a.68.68 0 0 0-.1-.23c-.419.38-.925.587-1.44.587-1.413 0-2.562-1.185-2.562-2.64 0-1.456 1.15-2.64 2.563-2.64.521 0 1.026.206 1.44.584a.637.637 0 0 0 .099-.226zm7.31-.226h5.048l.093 1.399h-.486l-.073-.288c-.092-.352-.12-.459-.732-.459h-.844v3.115c0 .735.065.735.572.735h.174v.514h-2.456v-.514h.175c.506 0 .571 0 .571-.735v-3.115h-.844c-.611 0-.64.107-.733.462l-.071.285h-.487l.094-1.4zm11.577.512v-.512h2.45v.512h-.175c-.51 0-.564 0-.564.728v2.528c0 .734.064.734.564.734h.174v.513h-2.449v-.513h.175c.5 0 .564 0 .564-.734V31.76c0-.728-.053-.728-.564-.728h-.175zm11.802-.644c1.528 0 2.772 1.184 2.772 2.64 0 1.456-1.244 2.64-2.772 2.64-1.524 0-2.765-1.184-2.765-2.64 0-1.456 1.24-2.64 2.765-2.64zm0 .653c-1.323 0-1.676 1.248-1.676 1.987 0 .735.353 1.98 1.676 1.98 1.33 0 1.684-1.245 1.684-1.98 0-.739-.355-1.987-1.684-1.987zm12.347-.009v-.512h2.123v.512h-.175c-.507 0-.572 0-.572.728v3.908h-.437l-2.907-3.593v2.213c0 .734.065.734.572.734h.175v.513h-2.123v-.513h.175c.5 0 .564 0 .564-.734V31.76c0-.728-.054-.728-.564-.728h-.175v-.512h1.355l2.728 3.381v-2.141c0-.728-.054-.728-.564-.728h-.175zm10.708 1.723c.583.295.904.77.904 1.338 0 .898-.71 1.575-1.653 1.575-.439 0-.766-.156-1.005-.27a2.792 2.792 0 0 0-.16-.072.48.48 0 0 0-.103.206l-.03.136h-.47v-2.06h.502l.003.172c0 .05.034 1.227 1.263 1.227.463 0 .798-.286.798-.68 0-.249-.262-.506-.8-.787l-.746-.38c-.463-.24-.958-.743-.958-1.439 0-.76.63-1.333 1.466-1.333.436 0 .712.125.926.264a.47.47 0 0 0 .078-.169l.031-.134h.47v2.06h-.5l-.013-.16c-.07-.808-.403-1.2-1.016-1.2-.33 0-.58.222-.58.517 0 .29.175.457.848.809l.745.38z"/>
        <path fill="#F2EFE6" d="M51.598 23.054L57.275 9.95h4.599v.926h-.175c-2.184 0-2.46.337-2.46 3.009v8.92c0 2.696.276 3.037 2.46 3.037h.175v.926h-7.76v-.926h.174c2.16 0 2.433-.34 2.433-3.037v-8.104l-5.42 12.534h-.586l-5.804-13.36v8.93c0 2.668.3 3.037 2.46 3.037h.175v.926H40.94v-.926h.175c2.16 0 2.432-.34 2.432-3.037v-8.92c0-2.672-.272-3.01-2.432-3.01h-.175v-.925h4.955l5.704 13.103zm15.965-6.132c3.123 0 5.664 2.283 5.664 5.088 0 2.82-2.54 5.116-5.664 5.116-3.124 0-5.665-2.295-5.665-5.116 0-2.805 2.54-5.088 5.665-5.088zm0 8.976c2.403 0 3.255-2.094 3.255-3.888 0-1.793-.852-3.887-3.255-3.887-2.55 0-3.229 2.443-3.229 3.887 0 1.794.845 3.888 3.229 3.888zm13.16-7.748v-.87h4.713v.87h-.175c-1.265 0-1.466.24-2.146 1.737v.001l-3.396 7.238h-.717l-3.368-7.238c-.673-1.453-.904-1.738-2.038-1.738h-.175v-.87h5.648v.87h-.175c-.717 0-1.126.096-1.25.293-.106.167-.043.484.2.994l2.038 4.331 2.037-4.33c.23-.494.36-.858.25-1.03-.11-.173-.527-.258-1.272-.258h-.175zm6.408 0v-.87h5.812v.87h-.175c-1.366 0-1.61.156-1.61 2.104v3.513c0 1.872.196 2.131 1.61 2.131h.175v.87h-5.812v-.87h.175c1.414 0 1.61-.259 1.61-2.131v-3.513c0-1.948-.244-2.104-1.61-2.104h-.175zm14.85 0v-.87h4.768v.87h-.174c-1.367 0-1.61.156-1.61 2.104v6.844h-.828l-6.144-6.67v3.339c0 1.872.196 2.131 1.61 2.131h.174v.87H95.01v-.87h.175c1.413 0 1.609-.259 1.609-2.131v-3.513c0-1.948-.243-2.104-1.61-2.104h-.174v-.87h2.968l5.787 6.26v-3.286c0-1.948-.243-2.104-1.609-2.104h-.175zm11.266 4.18h5.537v.87h-.175c-1.365 0-1.61.156-1.61 2.104v.998h-.174c-.57 0-1.344.208-2.092.41-.756.203-1.539.414-2.135.414-2.972 0-5.39-2.295-5.39-5.116 0-2.805 2.418-5.088 5.39-5.088 1.028 0 2.157.461 2.89 1.166.063-.15.121-.33.178-.506l.1-.303h.822v4.11h-.864l-.03-.138c-.43-1.988-1.558-3.128-3.096-3.128-2.741 0-2.954 2.975-2.954 3.887 0 .912.213 3.888 2.954 3.888.888 0 2.378-.206 2.378-1.582 0-.756-.233-1.116-1.555-1.116h-.174v-.87z"/>
        <path fill="#74B3CE" d="M159.724 17.28v.87h-.175c-1.366 0-1.609.156-1.609 2.104v6.844h-.828l-6.144-6.671v3.34c0 1.872.196 2.13 1.61 2.13h.175v.872h-4.77v-.871h.176c1.413 0 1.61-.259 1.61-2.131v-3.513c0-1.948-.244-2.104-1.61-2.104h-.175v-.87h2.968l5.788 6.26v-3.286c0-1.948-.244-2.104-1.61-2.104h-.175v-.87h4.77zm-23.863 8.508c-2.361 0-6.358-1.564-6.358-7.428 0-3.591 1.99-7.456 6.358-7.456 2.372 0 6.385 1.57 6.385 7.456 0 5.864-4.013 7.428-6.385 7.428zm0-16.304c-5.136 0-9.315 3.982-9.315 8.876 0 4.894 4.179 8.875 9.315 8.875 5.152 0 9.343-3.981 9.343-8.875s-4.191-8.876-9.343-8.876z"/>
    </g>
</svg>
